# xmcd CD database file
#
# Track frame offsets:
#	150
#	10000
#	31992
#	51490
#	63175
#	79282
#	94952
#	112885
#	146260
#	163112
#	184907
#	217040
#	233725
#	254600
#	272305
#	294007
#
# Disc length: 4278 seconds
#
# Revision: 0
# Processed by: cddbd v1.4PL0 Copyright (c) Steve Scherf et al.
# Submitted via: CDex 1.51
#
DISCID=da10b410
DTITLE=Joe Murphy snd the Water Street Blues Band - Live at Your Fathers Moustache
DYEAR=1993
DGENRE=Blues
TTITLE0=Little Bitty Pretty One/Rockin' Robin
TTITLE1=Everything's Gonna Be Alright
TTITLE2=You Were Wrong
TTITLE3=Flying Saucer
TTITLE4=Promised Land
TTITLE5=Ai Yi Yi
TTITLE6=Sugar Bee
TTITLE7=Mighty Long Time
TTITLE8=Hand In Hand
TTITLE9=Real Good Lover
TTITLE10=Blue And Lonesome
TTITLE11=Johnnie Can't Dance
TTITLE12=He Knows the Reules
TTITLE13=Walking With Frankie
TTITLE14=Majic Sam's Boogie
TTITLE15=Howling for My Darling
EXTD=YEAR: 1993
EXTT0=
EXTT1=
EXTT2=
EXTT3=
EXTT4=
EXTT5=
EXTT6=
EXTT7=
EXTT8=
EXTT9=
EXTT10=
EXTT11=
EXTT12=
EXTT13=
EXTT14=
EXTT15=
PLAYORDER=
